<svg width="145" height="128" viewBox="0 0 145 128" fill="none" xmlns="http://www.w3.org/2000/svg">
<rect x="12" y="15" width="121" height="100" fill="#BEE5FB"/>
<rect x="14" y="83" width="48" height="7" rx="3.5" stroke="#EE8095" stroke-width="2"/>
<rect x="13" y="16" width="76" height="58" rx="9" stroke="#EE8095" stroke-width="2"/>
<path d="M58.08 48.48C55.5467 40.2667 54.1067 36.16 53.76 36.16C53.44 36.16 52.32 39.2 50.4 45.28L49.44 48.32C50.6133 48.1333 51.9067 48.04 53.32 48.04C54.76 48.04 56.3467 48.1867 58.08 48.48ZM45.64 51.64C43.7733 52.2533 42.1733 53.2133 40.84 54.52C39.5333 55.8267 38.88 57.0533 38.88 58.2C38.88 58.76 39.0133 59.2 39.28 59.52C39.5733 59.8133 39.9467 59.96 40.4 59.96C41.8667 59.96 43.6133 57.1867 45.64 51.64ZM66.68 59.92C66.68 60.72 66.4667 61.3733 66.04 61.88C65.6133 62.36 65.08 62.6 64.44 62.6C63.2667 62.6 62.3733 61.7333 61.76 60C60.56 56.4267 59.6 53.4667 58.88 51.12C56.8533 50.7733 55 50.6 53.32 50.6C51.6667 50.6 50.1467 50.7333 48.76 51C47.0267 55.3467 45.7467 58.1733 44.92 59.48C43.5867 61.56 42.04 62.6 40.28 62.6C39.0533 62.6 38.08 62.1867 37.36 61.36C36.64 60.5333 36.28 59.5067 36.28 58.28C36.28 56.44 37.2133 54.5867 39.08 52.72C40.9467 50.8533 43.3733 49.5733 46.36 48.88C47.5333 45.6267 48.6267 42.4133 49.64 39.24C50.68 36.0667 51.2667 34.32 51.4 34C51.96 32.4 52.7333 31.6 53.72 31.6C54.8133 31.6 55.6267 32.2933 56.16 33.68C56.2933 34.0533 56.6667 35.16 57.28 37L61.24 49C62.3333 49.32 63.2267 49.7333 63.92 50.24C64.6133 50.7467 64.96 51.1867 64.96 51.56C64.96 52.1733 64.6267 52.48 63.96 52.48C63.72 52.48 63.08 52.2933 62.04 51.92C63.1867 55.6267 63.9333 57.7467 64.28 58.28C64.6267 58.8133 64.9067 59.1333 65.12 59.24C65.3333 59.3467 65.5733 59.4267 65.84 59.48C66.4 59.5867 66.68 59.7333 66.68 59.92Z" fill="#E37676"/>
<rect x="64" y="67" width="31" height="25" fill="#BEE5FB"/>
<rect x="43" y="73" width="22" height="2" rx="1" fill="#EE8095"/>
<path d="M105.109 53.1188C103.795 53.4641 102.719 54.0884 101.643 55.1641C100.076 56.718 99.2656 58.5641 99.2656 60.6493C99.2656 61.4329 99.3055 61.5923 99.5977 61.8712C99.9961 62.2829 100.461 62.2962 100.833 61.8977C101.072 61.6454 101.125 61.4329 101.125 60.636C101.125 58.5376 102.267 56.5454 104.073 55.5227C105.136 54.9118 105.946 54.7259 107.301 54.7923C108.39 54.8321 108.642 54.8985 109.519 55.3368C112.055 56.5852 113.317 59.3743 112.613 62.1368C112.029 64.3548 110.183 65.9751 107.832 66.3204C107.261 66.4001 101.616 66.4532 92.9969 66.4532H79.0914L78.8922 66.7454C78.7727 66.9048 78.6797 67.1704 78.6797 67.3165C78.6797 67.4626 78.7727 67.7282 78.8922 67.8876L79.0914 68.1798H93.6609C109.851 68.1798 108.934 68.2329 110.741 67.2766C113.33 65.922 114.964 62.9735 114.752 60.0384C114.513 56.7446 112.175 53.9423 109.001 53.1188C108.005 52.8532 106.092 52.8532 105.109 53.1188Z" fill="#E37676"/>
<path d="M121.777 64.8063C119.892 65.2048 118.723 65.829 117.461 67.104C115.934 68.6446 115.203 70.3712 115.203 72.4563C115.203 73.6384 115.429 74.0235 116.12 74.0235C116.77 74.0235 117.063 73.5056 117.063 72.3767C117.063 71.1149 117.461 69.9728 118.245 68.9368C119.945 66.7056 122.84 65.9618 125.324 67.1438C128.272 68.5384 129.52 71.9384 128.166 74.8868C127.754 75.7899 126.585 77.0517 125.722 77.5165C124.261 78.3134 125.324 78.2735 103.901 78.2735H84.2712L84.0056 78.6188C83.6603 79.0571 83.6603 79.3493 83.979 79.7478L84.2313 80.0665H104.14C125.961 80.0665 124.659 80.1196 126.439 79.2563C128.272 78.3665 129.64 76.7595 130.291 74.754C130.756 73.3595 130.782 71.4735 130.357 70.172C129.52 67.5688 127.249 65.4704 124.659 64.9259C123.823 64.7399 122.375 64.6868 121.777 64.8063Z" fill="#E37676"/>
<path d="M68.2673 66.6523C67.8556 67.0641 67.9087 67.768 68.3736 68.0734C68.4532 68.1266 69.715 68.1797 71.1892 68.1797C73.6064 68.1797 73.872 68.1531 74.0712 67.9406C74.3634 67.6086 74.3501 66.9445 74.0579 66.6789C73.7126 66.3602 68.5861 66.3469 68.2673 66.6523Z" fill="#E37676"/>
<path d="M66.6204 72.5227C66.1555 72.9211 66.1157 73.4258 66.5141 73.8109L66.8462 74.1562H79.0516H91.2571L91.536 73.8508C91.9212 73.4523 91.9079 73.0273 91.4962 72.6289L91.1774 72.2969H79.0384C67.6563 72.2969 66.8727 72.3102 66.6204 72.5227Z" fill="#E37676"/>
<path d="M95.4407 72.5227C94.9759 72.9211 94.936 73.4258 95.3344 73.8109C95.6532 74.1297 95.7462 74.1562 96.9946 74.1562C98.2696 74.1562 98.3227 74.143 98.5884 73.8109C98.9469 73.3461 98.9337 73.0273 98.5352 72.6289C98.243 72.3234 98.1102 72.2969 96.968 72.2969C95.9587 72.2969 95.6532 72.35 95.4407 72.5227Z" fill="#E37676"/>
<path d="M73.9383 78.4727C73.5 78.7781 73.5265 79.4953 73.9781 79.8539C74.3101 80.1063 74.5094 80.1328 76.6344 80.1328C79.1578 80.1328 79.5031 80.0531 79.7554 79.4422C79.8883 79.1102 79.875 79.0039 79.6492 78.6984L79.3836 78.3398L76.807 78.3C74.6422 78.2734 74.1773 78.3 73.9383 78.4727Z" fill="#E37676"/>
<path d="M67.9618 84.1172C67.3774 84.3563 67.218 85.1399 67.6563 85.5782C67.922 85.8438 68.0946 85.8438 84.8954 85.8438C103.728 85.8438 102.453 85.9102 102.453 84.9805C102.453 84.6618 102.36 84.4626 102.108 84.2633L101.749 83.9844L85.0016 83.9977C75.6915 83.9977 68.1212 84.0508 67.9618 84.1172Z" fill="#E37676"/>
<path d="M106.119 84.2633C105.694 84.5953 105.654 85.193 106.039 85.5781C106.265 85.8039 106.477 85.8438 107.606 85.8438C109.147 85.8438 109.492 85.6844 109.492 84.9805C109.492 84.2367 109.027 83.9844 107.633 83.9844C106.663 83.9844 106.411 84.0242 106.119 84.2633Z" fill="#E37676"/>
<path d="M68.2008 90.1735C67.8289 90.6383 67.8555 90.9571 68.2539 91.3688L68.586 91.7008L73.3008 91.661C77.5243 91.6211 78.0289 91.5946 78.2282 91.3953C78.5602 91.0633 78.5204 90.3727 78.1618 90.0672C77.8696 89.8414 77.5243 89.8281 73.168 89.8281H68.4664L68.2008 90.1735Z" fill="#E37676"/>
<path d="M82.5313 90.1203C82.1727 90.5055 82.1993 90.9703 82.5977 91.3555L82.9165 91.6875H97.7782C112.228 91.6875 112.68 91.7008 113.503 91.9532C116.93 93.0157 118.497 97.0532 116.717 100.307C115.588 102.379 113.038 103.654 110.794 103.256C107.912 102.751 105.773 100.281 105.773 97.4383C105.773 96.3227 105.561 95.9375 104.937 95.9375C104.18 95.9375 103.914 96.336 103.914 97.4914C103.927 99.6297 105.07 102.007 106.756 103.388C108.217 104.57 109.798 105.128 111.75 105.115C115.177 105.115 118.032 103.016 119.055 99.7227C119.453 98.4477 119.466 96.4953 119.068 95.2735C118.245 92.6703 116.08 90.6516 113.463 90.0274C112.733 89.8547 110.541 89.8282 97.7118 89.8282H82.8102L82.5313 90.1203Z" fill="#E37676"/>
</svg>
